#### ##       ##       ##     ##  ######  ####  #######  ##    ## 
 ##  ##       ##       ##     ## ##    ##  ##  ##     ## ###   ## 
 ##  ##       ##       ##     ## ##        ##  ##     ## ####  ## 
 ##  ##       ##       ##     ##  ######   ##  ##     ## ## ## ## 
 ##  ##       ##       ##     ##       ##  ##  ##     ## ##  #### 
 ##  ##       ##       ##     ## ##    ##  ##  ##     ## ##   ### 
#### ######## ########  #######   ######  ####  #######  ##    ## 


Movie Info

Plot: A soldier returning from the war in Afghanistan uncovers a conspiracy involving the intelligence services and a gang of drug dealers.
 
IMDB:   http://www.imdb.com/title/tt1653700/

 IMDB Rating: 7.0



General Info

 Size: 1.51GB
 Format: AVI
 Runtime: 1:34:12



Sources

 Video - The.Veteran.2011.NORDiC.PAL.DVDR-EGEN
 Audio - The.Veteran.2011.NORDiC.PAL.DVDR-EGEN
 (Thanks)



Video Info

 ID : 0
 Format : MPEG-4 Visual
 Format profile : Advanced Simple@L5
 Format settings, BVOP : 2
 Format settings, QPel : No
 Format settings, GMC : No warppoints
 Format settings, Matrix : Default (H.263)
 Muxing mode : Packed bitstream
 Codec ID : XVID
 Codec ID/Hint : XviD
 Duration : 1h 34mn
 Bit rate : 1 839 Kbps
 Width : 720 pixels
 Height : 384 pixels
 Display aspect ratio : 1.875
 Frame rate : 25.000 fps
 Color space : YUV
 Chroma subsampling : 4:2:0
 Bit depth : 8 bits
 Scan type : Progressive
 Compression mode : Lossy
 Bits/(Pixel*Frame) : 0.266
 Stream size : 1.21 GiB (80%)
 Writing library : XviD 58



Audio Info
 
 ID : 1
 Format : AC-3
 Format/Info : Audio Coding 3
 Mode extension : CM (complete main)
 Codec ID : 2000
 Duration : 1h 34mn
 Bit rate mode : Constant
 Bit rate : 448 Kbps
 Channel(s) : 6 channels
 Channel positions : Front: L C R, Side: L R, LFE
 Sampling rate : 48.0 KHz
 Bit depth : 16 bits
 Compression mode : Lossy
 Stream size : 302 MiB (20%)
 Alignment : Split accross interleaves
 Interleave, duration : 40 ms (1.00 video frame)
 Interleave, preload duration : 500 ms


Encoders Notes

 I cropped, resized, sharpened, added contrast, gamma & saturtion.
 Then i lightly de-noised & changed the colors with a rgb eq.
 Overall it looks good , here is a comparison beetween this & HIVE-CM8's  http://screenshotcomparison.com/comparison/68169/picture:4
 (In my opinon) Hive-CM8's is a little brighter & its a little sharper,
 but mine has better saturation, a:r & less noise
 In some parts the colors arent great as i didnt adjust them as much as i should  of done.The film is ok & theres a sample included, enjoy...



I am looking for:

 Cammers, Cams, Screeners (any type), Cam audio, Line audio,
 Un-released R6's R5's R4's R2's R1's,
 A Windows Server & a syncer.
 If you can provide any of these please
 contact me at illusion@hushmail.me






==================================                            
http://thepiratebay.org/user/hiest
==================================






Screen Shots:
 
http://leetleech.org/images/49752595066734857845.jpg
 
http://leetleech.org/images/22878237094717357090.jpg
 
http://leetleech.org/images/86260832854725037681.jpg
 
http://leetleech.org/images/11797808175220612400.jpg
 
http://leetleech.org/images/49619774992178649364.jpg
 
http://leetleech.org/images/37629386950811262713.jpg


#### ##       ##       ##     ##  ######  ####  #######  ##    ## 
 ##  ##       ##       ##     ## ##    ##  ##  ##     ## ###   ## 
 ##  ##       ##       ##     ## ##        ##  ##     ## ####  ## 
 ##  ##       ##       ##     ##  ######   ##  ##     ## ## ## ## 
 ##  ##       ##       ##     ##       ##  ##  ##     ## ##  #### 
 ##  ##       ##       ##     ## ##    ##  ##  ##     ## ##   ### 
#### ######## ########  #######   ######  ####  #######  ##    ## 
